<svg width="60" height="60" viewBox="0 0 60 60" fill="none" xmlns="http://www.w3.org/2000/svg">
<g clip-path="url(#clip0_279_3708)">
<path d="M52.5015 10.8984C53.1487 10.8984 53.6733 10.3738 53.6733 9.72656V3.51562C53.6733 1.57711 52.0962 0 50.1577 0H3.51709C1.57857 0 0.00146484 1.57711 0.00146484 3.51562V56.4844C0.00146484 58.4229 1.57857 60 3.51709 60H50.1577C52.0962 60 53.6733 58.4229 53.6733 56.4844V53.2031C53.6733 52.5559 53.1487 52.0312 52.5015 52.0312C51.8542 52.0312 51.3296 52.5559 51.3296 53.2031V56.4844C51.3296 57.1305 50.8039 57.6562 50.1577 57.6562H3.51709C2.87092 57.6562 2.34521 57.1305 2.34521 56.4844V3.51562C2.34521 2.86945 2.87092 2.34375 3.51709 2.34375H50.1577C50.8039 2.34375 51.3296 2.86945 51.3296 3.51562V9.72656C51.3296 10.3738 51.8542 10.8984 52.5015 10.8984Z" fill="white"/>
<path d="M46.8762 5.625H6.79663C6.1494 5.625 5.62476 6.14965 5.62476 6.79688V31.2891C5.62476 31.9363 6.1494 32.4609 6.79663 32.4609C7.44386 32.4609 7.96851 31.9363 7.96851 31.2891V7.96875H45.7043V9.84375C45.7043 10.491 46.2291 11.0156 46.8762 11.0156C47.5234 11.0156 48.048 10.491 48.048 9.84375V6.79688C48.048 6.14965 47.5234 5.625 46.8762 5.625Z" fill="white"/>
<path d="M7.62466 34.7965C7.40669 34.5785 7.10552 34.4531 6.79614 34.4531C6.48794 34.4531 6.1856 34.5785 5.96763 34.7965C5.74966 35.0145 5.62427 35.3168 5.62427 35.625C5.62427 35.9332 5.74966 36.2355 5.96763 36.4535C6.1856 36.6715 6.48794 36.7969 6.79614 36.7969C7.10552 36.7969 7.40669 36.6715 7.62466 36.4535C7.8438 36.2355 7.96802 35.9332 7.96802 35.625C7.96802 35.3168 7.8438 35.0145 7.62466 34.7965Z" fill="white"/>
<path d="M46.8762 49.4531C46.229 49.4531 45.7043 49.9778 45.7043 50.625V52.0312H7.96851V40.1367C7.96851 39.4895 7.44386 38.9648 6.79663 38.9648C6.1494 38.9648 5.62476 39.4895 5.62476 40.1367V53.2031C5.62476 53.8504 6.1494 54.375 6.79663 54.375H46.8762C47.5234 54.375 48.048 53.8504 48.048 53.2031V50.625C48.048 49.9778 47.5234 49.4531 46.8762 49.4531Z" fill="white"/>
<path d="M36.3172 41.4065C35.8596 40.9488 35.1177 40.9488 34.66 41.4064L32.3439 43.7226L30.9042 42.2829C29.9952 41.374 28.5164 41.374 27.6074 42.2829L26.6706 43.2197C26.213 43.6773 26.213 44.4193 26.6706 44.8771C27.1282 45.3347 27.8703 45.3347 28.328 44.8771L29.2559 43.9492L30.6955 45.3889C31.15 45.8434 31.7469 46.0706 32.3439 46.0706C32.9408 46.0706 33.5378 45.8434 33.9922 45.3889L36.3172 43.0639C36.7749 42.6063 36.7749 41.8643 36.3172 41.4065Z" fill="white"/>
<path d="M59.4608 24.5839C59.9773 23.7782 60.1315 22.7859 59.8838 21.8615C59.636 20.9371 59.0065 20.1549 58.1563 19.7154C57.7876 19.5249 57.5619 19.134 57.5813 18.7195C57.6257 17.7635 57.2631 16.8271 56.5865 16.1504C55.9098 15.4737 54.9737 15.1106 54.0174 15.1556C53.6009 15.1757 53.2119 14.9491 53.0214 14.5805C52.5819 13.7304 51.7997 13.1008 50.8753 12.8531C49.9506 12.6052 48.9586 12.7595 48.1531 13.276C47.8037 13.5001 47.3523 13.4999 47.0031 13.276C46.1974 12.7594 45.2053 12.6053 44.2808 12.8531C43.3565 13.1008 42.5742 13.7304 42.1348 14.5805C41.9442 14.9492 41.5522 15.1743 41.1388 15.1556C40.1824 15.1109 39.2465 15.4737 38.5698 16.1504C37.8931 16.8271 37.5305 17.7635 37.5749 18.7193C37.5942 19.134 37.3684 19.5249 36.9999 19.7154C36.1498 20.1549 35.5201 20.937 35.2724 21.8615C35.1542 22.3025 35.1285 22.7589 35.1891 23.2032H14.7399C14.0926 23.2032 13.568 23.7278 13.568 24.3751C13.568 25.0223 14.0926 25.5469 14.7399 25.5469H35.7878C35.7626 25.6113 35.7334 25.6744 35.6952 25.734C35.1788 26.5396 35.0245 27.532 35.2723 28.4563C35.3063 28.5833 35.3481 28.7072 35.3961 28.8282H14.7395C14.0923 28.8282 13.5676 29.3528 13.5676 30.0001C13.5676 30.6473 14.0923 31.1719 14.7395 31.1719H37.5049C37.5559 31.3059 37.5815 31.4504 37.5745 31.5984C37.5301 32.5544 37.8927 33.4907 38.5695 34.1675C39.2461 34.8441 40.1821 35.2074 41.1384 35.1623C41.5525 35.142 41.9439 35.3686 42.1344 35.7373C42.2752 36.0097 42.4515 36.2589 42.656 36.4808V47.4252C42.656 47.8987 42.9409 48.3256 43.378 48.5074C43.815 48.6891 44.3187 48.59 44.6544 48.256L47.5779 45.3477L50.5014 48.256C50.7254 48.4789 51.0242 48.5971 51.3281 48.5971C51.4795 48.5971 51.6324 48.5677 51.7778 48.5072C52.2149 48.3255 52.4998 47.8986 52.4998 47.4251V36.4806C52.7043 36.2589 52.8806 36.0095 53.0214 35.7372C53.2119 35.3685 53.6033 35.1433 54.0174 35.1622C54.9743 35.2074 55.9097 34.8441 56.5863 34.1674C57.2631 33.4906 57.6257 32.5543 57.5813 31.5983C57.5619 31.1838 57.7877 30.7928 58.1563 30.6023C59.0064 30.1628 59.636 29.3807 59.8838 28.4562C60.1315 27.5317 59.9773 26.5395 59.4608 25.7337C59.2368 25.3846 59.2368 24.9332 59.4608 24.5839ZM50.156 44.6065L48.4043 42.864C47.9472 42.4092 47.2085 42.4092 46.7514 42.864L44.9998 44.6065V37.5762C45.7009 37.6093 46.4036 37.426 47.003 37.0418C47.3523 36.8178 47.8037 36.8179 48.1529 37.0418C48.7064 37.3967 49.3479 37.5806 49.9951 37.5806C50.0488 37.5806 50.1024 37.5779 50.156 37.5753V44.6065ZM57.6198 27.8498C57.5413 28.1429 57.3495 28.3811 57.0799 28.5204C55.9006 29.1302 55.1782 30.381 55.24 31.7074C55.2542 32.0105 55.1436 32.2956 54.9291 32.5103C54.7145 32.7249 54.4294 32.8351 54.1262 32.8212C52.7992 32.7598 51.549 33.4817 50.9393 34.6612C50.8 34.9308 50.5617 35.1226 50.2685 35.2011C49.9756 35.2795 49.6732 35.2327 49.4179 35.0689C48.8589 34.7105 48.2184 34.5315 47.5778 34.5315C46.9374 34.5315 46.2967 34.7106 45.7378 35.0689C45.4824 35.2326 45.1801 35.2795 44.887 35.2011C44.5938 35.1226 44.3557 34.9307 44.2163 34.6612C43.6065 33.4818 42.3566 32.7592 41.0293 32.8212C40.7269 32.8352 40.4411 32.7249 40.2265 32.5103C40.0118 32.2956 39.9014 32.0105 39.9156 31.7072C39.9591 30.7711 39.6107 29.8737 38.9881 29.2117C38.9698 29.1917 38.9511 29.172 38.9315 29.1533C38.6842 28.9026 38.3977 28.687 38.0756 28.5204C37.8061 28.3811 37.6144 28.143 37.5359 27.8498C37.4574 27.5566 37.5042 27.2544 37.6681 26.999C38.3847 25.8813 38.3847 24.4368 37.6681 23.3191C37.5043 23.0636 37.4574 22.7614 37.5359 22.4682C37.6144 22.1751 37.8062 21.9369 38.0758 21.7975C39.2551 21.1878 39.9774 19.9369 39.9157 18.6106C39.9015 18.3074 40.012 18.0223 40.2266 17.8076C40.4412 17.5929 40.7269 17.4828 41.0295 17.4967C42.3566 17.5583 43.6068 16.8363 44.2164 15.6568C44.3557 15.3871 44.594 15.1954 44.8872 15.1169C45.1802 15.0385 45.4825 15.0852 45.7378 15.2491C46.8557 15.9658 48.3002 15.9658 49.4177 15.2491C49.6732 15.0854 49.9753 15.0383 50.2685 15.1169C50.5617 15.1954 50.7999 15.3872 50.9393 15.6568C51.549 16.8361 52.7998 17.5586 54.1262 17.4967C54.4295 17.4829 54.7145 17.5929 54.9291 17.8076C55.1438 18.0223 55.2542 18.3074 55.24 18.6106C55.1783 19.9368 55.9004 21.1878 57.0801 21.7975C57.3496 21.9369 57.5413 22.175 57.6198 22.4682C57.6983 22.7614 57.6515 23.0636 57.4876 23.319C56.771 24.4367 56.771 25.8811 57.4876 26.9989C57.6515 27.2543 57.6984 27.5566 57.6198 27.8498Z" fill="white"/>
<path d="M53.151 21.971C52.6934 21.5134 51.9513 21.5134 51.4937 21.971L47.6042 25.8607L46.0558 24.3123C45.5982 23.8547 44.8561 23.8547 44.3984 24.3123C43.9408 24.7699 43.9408 25.512 44.3984 25.9697L46.7754 28.3467C47.0043 28.5756 47.3042 28.69 47.604 28.69C47.9039 28.69 48.2039 28.5756 48.4327 28.3467L53.151 23.6284C53.6086 23.1708 53.6086 22.4288 53.151 21.971Z" fill="white"/>
<path d="M14.3056 14.1715C14.0876 13.9535 13.7853 13.8281 13.4771 13.8281C13.1688 13.8281 12.8665 13.9535 12.6485 14.1715C12.4306 14.3895 12.3052 14.6918 12.3052 15C12.3052 15.3082 12.4306 15.6105 12.6485 15.8285C12.8665 16.0465 13.1688 16.1719 13.4771 16.1719C13.7853 16.1719 14.0876 16.0465 14.3056 15.8285C14.5235 15.6105 14.6489 15.3082 14.6489 15C14.6489 14.6918 14.5235 14.3895 14.3056 14.1715Z" fill="white"/>
<path d="M23.5542 13.8281H17.8511C17.2038 13.8281 16.6792 14.3528 16.6792 15C16.6792 15.6472 17.2038 16.1719 17.8511 16.1719H23.5542C24.2015 16.1719 24.7261 15.6472 24.7261 15C24.7261 14.3528 24.2015 13.8281 23.5542 13.8281Z" fill="white"/>
<path d="M35.4889 34.4531H22.0918C21.4446 34.4531 20.9199 34.9778 20.9199 35.625C20.9199 36.2722 21.4446 36.7969 22.0918 36.7969H35.4888C36.136 36.7969 36.6607 36.2722 36.6607 35.625C36.6607 34.9778 36.1361 34.4531 35.4889 34.4531Z" fill="white"/>
</g>
<defs>
<clipPath id="clip0_279_3708">
<rect width="60" height="60" fill="white"/>
</clipPath>
</defs>
</svg>
