<svg width="50" height="50" viewBox="0 0 50 50" fill="none" xmlns="http://www.w3.org/2000/svg">
<g clip-path="url(#clip0_243_1334)">
<path d="M43.7515 9.08203C44.2908 9.08203 44.728 8.64482 44.728 8.10547V2.92969C44.728 1.31426 43.4138 0 41.7983 0H2.93115C1.31572 0 0.00146484 1.31426 0.00146484 2.92969V47.0703C0.00146484 48.6857 1.31572 50 2.93115 50H41.7983C43.4138 50 44.728 48.6857 44.728 47.0703V44.3359C44.728 43.7966 44.2908 43.3594 43.7515 43.3594C43.2121 43.3594 42.7749 43.7966 42.7749 44.3359V47.0703C42.7749 47.6088 42.3368 48.0469 41.7983 48.0469H2.93115C2.39268 48.0469 1.95459 47.6088 1.95459 47.0703V2.92969C1.95459 2.39121 2.39268 1.95312 2.93115 1.95312H41.7983C42.3368 1.95312 42.7749 2.39121 42.7749 2.92969V8.10547C42.7749 8.64482 43.2121 9.08203 43.7515 9.08203Z" fill="#3766CC"/>
<path d="M39.0634 4.6875H5.66382C5.12446 4.6875 4.68726 5.12471 4.68726 5.66406V26.0742C4.68726 26.6136 5.12446 27.0508 5.66382 27.0508C6.20317 27.0508 6.64038 26.6136 6.64038 26.0742V6.64062H38.0869V8.20312C38.0869 8.74248 38.5242 9.17969 39.0634 9.17969C39.6028 9.17969 40.04 8.74248 40.04 8.20312V5.66406C40.04 5.12471 39.6028 4.6875 39.0634 4.6875Z" fill="#3766CC"/>
<path d="M6.35401 28.9971C6.17237 28.8154 5.92139 28.7109 5.66358 28.7109C5.40674 28.7109 5.15479 28.8154 4.97314 28.9971C4.7915 29.1787 4.68701 29.4307 4.68701 29.6875C4.68701 29.9443 4.7915 30.1963 4.97314 30.3779C5.15479 30.5596 5.40674 30.6641 5.66358 30.6641C5.92139 30.6641 6.17237 30.5596 6.35401 30.3779C6.53662 30.1963 6.64014 29.9443 6.64014 29.6875C6.64014 29.4307 6.53662 29.1787 6.35401 28.9971Z" fill="#3766CC"/>
<path d="M39.0634 41.2109C38.5241 41.2109 38.0869 41.6481 38.0869 42.1875V43.3594H6.64038V33.4473C6.64038 32.9079 6.20317 32.4707 5.66382 32.4707C5.12446 32.4707 4.68726 32.9079 4.68726 33.4473V44.3359C4.68726 44.8753 5.12446 45.3125 5.66382 45.3125H39.0634C39.6028 45.3125 40.04 44.8753 40.04 44.3359V42.1875C40.04 41.6481 39.6028 41.2109 39.0634 41.2109Z" fill="#3766CC"/>
<path d="M30.2646 34.5055C29.8832 34.124 29.265 34.124 28.8835 34.5054L26.9534 36.4355L25.7537 35.2357C24.9962 34.4783 23.7639 34.4783 23.0064 35.2357L22.2257 36.0164C21.8444 36.3977 21.8444 37.0161 22.2257 37.3975C22.6071 37.7789 23.2254 37.7789 23.6069 37.3975L24.3801 36.6243L25.5798 37.8241C25.9585 38.2028 26.456 38.3922 26.9534 38.3922C27.4509 38.3922 27.9484 38.2028 28.3271 37.8241L30.2646 35.8866C30.6459 35.5053 30.6459 34.8869 30.2646 34.5055Z" fill="#3766CC"/>
<path d="M49.5507 20.4865C49.9811 19.8151 50.1096 18.9882 49.9032 18.2179C49.6967 17.4476 49.1721 16.7957 48.4636 16.4295C48.1564 16.2707 47.9683 15.9449 47.9844 15.5995C48.0214 14.8028 47.7193 14.0226 47.1554 13.4586C46.5916 12.8947 45.8115 12.5921 45.0145 12.6296C44.6674 12.6464 44.3433 12.4575 44.1845 12.1504C43.8183 11.442 43.1665 10.9173 42.3961 10.7108C41.6255 10.5043 40.7989 10.6329 40.1276 11.0633C39.8365 11.25 39.4603 11.2499 39.1693 11.0633C38.4979 10.6328 37.6711 10.5044 36.9007 10.7108C36.1304 10.9173 35.4786 11.442 35.1124 12.1504C34.9536 12.4576 34.6269 12.6452 34.2824 12.6296C33.4854 12.5924 32.7054 12.8947 32.1416 13.4586C31.5776 14.0226 31.2754 14.8028 31.3125 15.5994C31.3286 15.9449 31.1404 16.2707 30.8333 16.4295C30.1249 16.7957 29.6001 17.4475 29.3937 18.2179C29.2952 18.5854 29.2738 18.9657 29.3243 19.3359H12.2833C11.7439 19.3359 11.3067 19.7731 11.3067 20.3125C11.3067 20.8519 11.7439 21.2891 12.2833 21.2891H29.8232C29.8022 21.3427 29.7779 21.3953 29.746 21.4449C29.3157 22.1163 29.1872 22.9433 29.3936 23.7136C29.4219 23.8193 29.4568 23.9227 29.4968 24.0234H12.283C11.7436 24.0234 11.3064 24.4606 11.3064 25C11.3064 25.5394 11.7436 25.9766 12.283 25.9766H31.2542C31.2966 26.0882 31.3179 26.2086 31.3122 26.3319C31.2751 27.1286 31.5773 27.9089 32.1413 28.4729C32.7051 29.0367 33.4851 29.3395 34.2821 29.3019C34.6271 29.285 34.9533 29.4738 35.1121 29.7811C35.2293 30.008 35.3763 30.2157 35.5467 30.4006V39.521C35.5467 39.9155 35.7841 40.2713 36.1484 40.4228C36.5125 40.5742 36.9323 40.4916 37.2121 40.2133L39.6483 37.7897L42.0845 40.2133C42.2712 40.399 42.5202 40.4976 42.7735 40.4976C42.8997 40.4976 43.027 40.473 43.1482 40.4227C43.5125 40.2712 43.7499 39.9154 43.7499 39.5209V30.4005C43.9203 30.2157 44.0672 30.0079 44.1845 29.781C44.3433 29.4737 44.6695 29.286 45.0145 29.3018C45.812 29.3395 46.5915 29.0367 47.1553 28.4728C47.7193 27.9088 48.0214 27.1285 47.9844 26.3318C47.9683 25.9864 48.1565 25.6606 48.4636 25.5019C49.172 25.1356 49.6967 24.4839 49.9032 23.7135C50.1096 22.9431 49.9811 22.1162 49.5507 21.4447C49.364 21.1538 49.364 20.7776 49.5507 20.4865ZM41.7967 37.1721L40.337 35.7199C39.956 35.3409 39.3405 35.3409 38.9595 35.7199L37.4999 37.1721V31.3135C38.0841 31.341 38.6697 31.1883 39.1692 30.8682C39.4603 30.6814 39.8365 30.6815 40.1275 30.8682C40.5887 31.1639 41.1233 31.3171 41.6626 31.3171C41.7074 31.3171 41.752 31.3148 41.7967 31.3127V37.1721ZM48.0166 23.2081C47.9511 23.4523 47.7913 23.6509 47.5667 23.767C46.5838 24.2751 45.9819 25.3175 46.0333 26.4228C46.0452 26.6754 45.9531 26.913 45.7743 27.0919C45.5955 27.2707 45.3579 27.3625 45.1052 27.351C43.9994 27.2998 42.9576 27.9014 42.4495 28.8843C42.3334 29.109 42.1348 29.2687 41.8905 29.3342C41.6463 29.3995 41.3944 29.3605 41.1816 29.224C40.7158 28.9254 40.1821 28.7762 39.6482 28.7762C39.1145 28.7762 38.5806 28.9255 38.1149 29.224C37.902 29.3604 37.6501 29.3995 37.4059 29.3342C37.1616 29.2687 36.9631 29.1089 36.8469 28.8843C36.3388 27.9015 35.2972 27.2993 34.1912 27.351C33.9391 27.3626 33.7009 27.2707 33.5221 27.0919C33.3432 26.913 33.2512 26.6754 33.263 26.4227C33.2993 25.6426 33.0089 24.8947 32.4901 24.3431C32.4749 24.3264 32.4593 24.31 32.4429 24.2943C32.2369 24.0855 31.9981 23.9058 31.7297 23.767C31.5051 23.6509 31.3454 23.4524 31.2799 23.2081C31.2145 22.9638 31.2536 22.7119 31.3901 22.4991C31.9873 21.5677 31.9873 20.364 31.3901 19.4325C31.2537 19.2196 31.2145 18.9678 31.2799 18.7234C31.3454 18.4792 31.5052 18.2807 31.7298 18.1646C32.7126 17.6564 33.3145 16.6141 33.2631 15.5088C33.2513 15.2562 33.3434 15.0186 33.5222 14.8397C33.701 14.6607 33.9391 14.5689 34.1913 14.5806C35.2972 14.6318 36.339 14.0302 36.847 13.0473C36.9631 12.8226 37.1617 12.6628 37.406 12.5974C37.6502 12.532 37.9021 12.571 38.1149 12.7075C39.0464 13.3048 40.2502 13.3048 41.1815 12.7075C41.3944 12.5711 41.6461 12.5318 41.8905 12.5974C42.1348 12.6628 42.3333 12.8227 42.4495 13.0473C42.9576 14.0301 43.9999 14.6321 45.1052 14.5806C45.358 14.569 45.5955 14.6607 45.7743 14.8397C45.9532 15.0186 46.0452 15.2562 46.0333 15.5088C45.982 16.614 46.5837 17.6564 47.5667 18.1646C47.7914 18.2807 47.9511 18.4791 48.0166 18.7234C48.082 18.9678 48.0429 19.2196 47.9064 19.4324C47.3092 20.3639 47.3092 21.5676 47.9064 22.499C48.0429 22.7119 48.0821 22.9638 48.0166 23.2081Z" fill="#3766CC"/>
<path d="M44.2925 18.3092C43.9111 17.9279 43.2928 17.9279 42.9114 18.3092L39.6701 21.5506L38.3798 20.2603C37.9985 19.8789 37.3801 19.8789 36.9987 20.2603C36.6173 20.6416 36.6173 21.26 36.9987 21.6414L38.9795 23.6223C39.1702 23.813 39.4201 23.9083 39.67 23.9083C39.9199 23.9083 40.1699 23.813 40.3606 23.6223L44.2925 19.6904C44.6738 19.309 44.6738 18.6906 44.2925 18.3092Z" fill="#3766CC"/>
<path d="M11.9214 11.8096C11.7397 11.6279 11.4878 11.5234 11.231 11.5234C10.9741 11.5234 10.7222 11.6279 10.5405 11.8096C10.3589 11.9912 10.2544 12.2432 10.2544 12.5C10.2544 12.7568 10.3589 13.0088 10.5405 13.1904C10.7222 13.3721 10.9741 13.4766 11.231 13.4766C11.4878 13.4766 11.7397 13.3721 11.9214 13.1904C12.103 13.0088 12.2075 12.7568 12.2075 12.5C12.2075 12.2432 12.103 11.9912 11.9214 11.8096Z" fill="#3766CC"/>
<path d="M19.6286 11.5234H14.876C14.3366 11.5234 13.8994 11.9606 13.8994 12.5C13.8994 13.0394 14.3366 13.4766 14.876 13.4766H19.6286C20.168 13.4766 20.6052 13.0394 20.6052 12.5C20.6052 11.9606 20.168 11.5234 19.6286 11.5234Z" fill="#3766CC"/>
<path d="M29.5739 28.7109H18.4097C17.8703 28.7109 17.4331 29.1481 17.4331 29.6875C17.4331 30.2269 17.8703 30.6641 18.4097 30.6641H29.5738C30.1132 30.6641 30.5504 30.2269 30.5504 29.6875C30.5504 29.1481 30.1133 28.7109 29.5739 28.7109Z" fill="#3766CC"/>
</g>
<defs>
<clipPath id="clip0_243_1334">
<rect width="50" height="50" fill="white"/>
</clipPath>
</defs>
</svg>
