<svg width="190" height="190" viewBox="0 0 190 190" fill="none" xmlns="http://www.w3.org/2000/svg">
<g filter="url(#filter0_d_720_3)">
<path d="M87.6017 44.1354C91.5692 39.7727 98.4308 39.7727 102.398 44.1354L104.462 46.4047C106.675 48.8383 109.943 50.0279 113.203 49.5862L116.243 49.1743C122.086 48.3825 127.343 52.7931 127.577 58.6854L127.7 61.7503C127.831 65.0371 129.57 68.0492 132.351 69.8061L134.944 71.4444C139.929 74.594 141.121 81.3514 137.513 86.0162L135.637 88.4426C133.624 91.0447 133.021 94.4699 134.022 97.6033L134.955 100.525C136.749 106.142 133.319 112.085 127.557 113.339L124.56 113.992C121.345 114.692 118.681 116.927 117.434 119.971L116.271 122.809C114.035 128.266 107.587 130.613 102.366 127.87L99.651 126.444C96.7391 124.914 93.2609 124.914 90.349 126.444L87.6336 127.87C82.4133 130.613 75.9654 128.266 73.7294 122.809L72.5663 119.971C71.319 116.927 68.6546 114.692 65.4405 113.992L62.4433 113.339C56.6814 112.085 53.2505 106.142 55.0451 100.525L55.9785 97.6033C56.9795 94.4699 56.3755 91.0447 54.3632 88.4426L52.4867 86.0162C48.8792 81.3514 50.0707 74.594 55.0561 71.4444L57.6493 69.8061C60.4302 68.0492 62.1693 65.0371 62.3003 61.7503L62.4225 58.6854C62.6575 52.7931 67.9138 48.3825 73.7574 49.1743L76.797 49.5862C80.0566 50.0279 83.3249 48.8383 85.538 46.4047L87.6017 44.1354Z" fill="#BD9C4C"/>
</g>
<path d="M87.6017 43.1354C91.5692 38.7727 98.4308 38.7727 102.398 43.1354L104.462 45.4047C106.675 47.8383 109.943 49.0279 113.203 48.5862L116.243 48.1743C122.086 47.3825 127.343 51.7931 127.577 57.6854L127.7 60.7503C127.831 64.0371 129.57 67.0492 132.351 68.8061L134.944 70.4444C139.929 73.594 141.121 80.3514 137.513 85.0162L135.637 87.4426C133.624 90.0447 133.021 93.4699 134.022 96.6033L134.955 99.5252C136.749 105.142 133.319 111.085 127.557 112.339L124.56 112.992C121.345 113.692 118.681 115.927 117.434 118.971L116.271 121.809C114.035 127.266 107.587 129.613 102.366 126.87L99.651 125.444C96.7391 123.914 93.2609 123.914 90.349 125.444L87.6336 126.87C82.4133 129.613 75.9654 127.266 73.7294 121.809L72.5663 118.971C71.319 115.927 68.6546 113.692 65.4405 112.992L62.4433 112.339C56.6814 111.085 53.2505 105.142 55.0451 99.5252L55.9785 96.6033C56.9795 93.4699 56.3755 90.0447 54.3632 87.4426L52.4867 85.0162C48.8792 80.3514 50.0707 73.594 55.0561 70.4444L57.6493 68.8061C60.4302 67.0492 62.1693 64.0371 62.3003 60.7503L62.4225 57.6854C62.6575 51.7931 67.9138 47.3825 73.7574 48.1743L76.797 48.5862C80.0566 49.0279 83.3249 47.8383 85.538 45.4047L87.6017 43.1354Z" fill="url(#paint0_linear_720_3)"/>
<path d="M87.6017 43.1354C91.5692 38.7727 98.4308 38.7727 102.398 43.1354L104.462 45.4047C106.675 47.8383 109.943 49.0279 113.203 48.5862L116.243 48.1743C122.086 47.3825 127.343 51.7931 127.577 57.6854L127.7 60.7503C127.831 64.0371 129.57 67.0492 132.351 68.8061L134.944 70.4444C139.929 73.594 141.121 80.3514 137.513 85.0162L135.637 87.4426C133.624 90.0447 133.021 93.4699 134.022 96.6033L134.955 99.5252C136.749 105.142 133.319 111.085 127.557 112.339L124.56 112.992C121.345 113.692 118.681 115.927 117.434 118.971L116.271 121.809C114.035 127.266 107.587 129.613 102.366 126.87L99.651 125.444C96.7391 123.914 93.2609 123.914 90.349 125.444L87.6336 126.87C82.4133 129.613 75.9654 127.266 73.7294 121.809L72.5663 118.971C71.319 115.927 68.6546 113.692 65.4405 112.992L62.4433 112.339C56.6814 111.085 53.2505 105.142 55.0451 99.5252L55.9785 96.6033C56.9795 93.4699 56.3755 90.0447 54.3632 87.4426L52.4867 85.0162C48.8792 80.3514 50.0707 73.594 55.0561 70.4444L57.6493 68.8061C60.4302 67.0492 62.1693 64.0371 62.3003 60.7503L62.4225 57.6854C62.6575 51.7931 67.9138 47.3825 73.7574 48.1743L76.797 48.5862C80.0566 49.0279 83.3249 47.8383 85.538 45.4047L87.6017 43.1354Z" fill="url(#paint1_radial_720_3)" fill-opacity="0.2"/>
<defs>
<filter id="filter0_d_720_3" x="0.395996" y="0.863358" width="189.208" height="188.158" filterUnits="userSpaceOnUse" color-interpolation-filters="sRGB">
<feFlood flood-opacity="0" result="BackgroundImageFix"/>
<feColorMatrix in="SourceAlpha" type="matrix" values="0 0 0 0 0 0 0 0 0 0 0 0 0 0 0 0 0 0 127 0" result="hardAlpha"/>
<feOffset dy="10"/>
<feGaussianBlur stdDeviation="25"/>
<feComposite in2="hardAlpha" operator="out"/>
<feColorMatrix type="matrix" values="0 0 0 0 0.913725 0 0 0 0 0.784314 0 0 0 0 0.470588 0 0 0 0.5 0"/>
<feBlend mode="normal" in2="BackgroundImageFix" result="effect1_dropShadow_720_3"/>
<feBlend mode="normal" in="SourceGraphic" in2="effect1_dropShadow_720_3" result="shape"/>
</filter>
<linearGradient id="paint0_linear_720_3" x1="45" y1="35" x2="149.483" y2="39.9265" gradientUnits="userSpaceOnUse">
<stop stop-color="#E9C878"/>
<stop offset="1" stop-color="#C1A050"/>
</linearGradient>
<radialGradient id="paint1_radial_720_3" cx="0" cy="0" r="1" gradientUnits="userSpaceOnUse" gradientTransform="translate(95 85) rotate(-108.041) scale(33.2118 97.5856)">
<stop stop-color="white"/>
<stop offset="1" stop-color="white" stop-opacity="0"/>
</radialGradient>
</defs>
</svg>
