<svg width="34" height="34" viewBox="0 0 34 34" fill="none" xmlns="http://www.w3.org/2000/svg">
<g clip-path="url(#clip0_301_1803)">
<path d="M9.27271 10.0455C9.27271 10.4726 9.61833 10.8182 10.0455 10.8182C10.4726 10.8182 10.8182 10.4726 10.8182 10.0455C10.8182 9.61914 11.1646 9.27272 11.591 9.27272C12.0174 9.27272 12.3637 9.61907 12.3637 10.0455C12.3637 10.4719 12.0174 10.8182 11.591 10.8182C11.1638 10.8182 10.8182 11.1638 10.8182 11.591C10.8182 12.0181 11.1638 12.3637 11.591 12.3637C12.0173 12.3637 12.3637 12.7101 12.3637 13.1365C12.3637 13.5628 12.0174 13.9092 11.591 13.9092C11.1646 13.9092 10.8182 13.5629 10.8182 13.1365C10.8182 12.7093 10.4726 12.3637 10.0455 12.3637C9.61833 12.3637 9.27271 12.7093 9.27271 13.1365C9.27271 14.4148 10.3126 15.4546 11.5909 15.4546C12.8692 15.4546 13.9091 14.4148 13.9091 13.1365C13.9091 12.5433 13.6849 12.0015 13.3174 11.591C13.6849 11.1805 13.9091 10.6387 13.9091 10.0456C13.9091 8.76728 12.8692 7.72743 11.5909 7.72743C10.3126 7.72743 9.27271 8.76721 9.27271 10.0455Z" fill="#6E5A45"/>
<path d="M22.4091 15.4546C23.6875 15.4546 24.7273 14.4147 24.7273 13.1364V10.0455C24.7273 8.76714 23.6875 7.72729 22.4091 7.72729C21.1308 7.72729 20.0909 8.76714 20.0909 10.0455V13.1364C20.0909 14.4147 21.1308 15.4546 22.4091 15.4546ZM21.6364 10.0455C21.6364 9.61914 21.9827 9.27272 22.4091 9.27272C22.8354 9.27272 23.1819 9.61907 23.1819 10.0455V13.1364C23.1819 13.5627 22.8355 13.9091 22.4091 13.9091C21.9828 13.9091 21.6364 13.5628 21.6364 13.1364V10.0455Z" fill="#6E5A45"/>
<path d="M16.9999 15.4546C18.2783 15.4546 19.3181 14.4147 19.3181 13.1364C19.3181 11.8581 18.2783 10.8182 16.9999 10.8182C16.7626 10.8182 16.5378 10.8645 16.322 10.9312C16.4966 10.228 17.0084 9.27279 18.5454 9.27279C18.9725 9.27279 19.3181 8.92716 19.3181 8.50004C19.3181 8.07291 18.9725 7.72729 18.5454 7.72729C15.4891 7.72729 14.6818 10.2545 14.6818 11.5909V13.1363C14.6818 14.4147 15.7216 15.4546 16.9999 15.4546ZM16.9999 12.3636C17.4263 12.3636 17.7727 12.71 17.7727 13.1364C17.7727 13.5627 17.4263 13.9091 16.9999 13.9091C16.5736 13.9091 16.2272 13.5628 16.2272 13.1364C16.2272 12.7101 16.5736 12.3636 16.9999 12.3636Z" fill="#6E5A45"/>
<path d="M26.2727 9.27272C27.1262 9.27272 27.8182 8.5808 27.8182 7.72729C27.8182 6.87377 27.1262 6.18185 26.2727 6.18185C25.4192 6.18185 24.7273 6.87377 24.7273 7.72729C24.7273 8.5808 25.4192 9.27272 26.2727 9.27272Z" fill="#6E5A45"/>
<path d="M32.4521 23.9504C32.4521 23.6651 32.2951 23.4033 32.0439 23.269C31.7927 23.1348 31.4871 23.1498 31.251 23.3075L30.7091 23.6688C29.3729 21.6342 27.9597 19.8319 27.1691 18.8629C26.899 18.5317 26.4123 18.4804 26.0827 18.7527C25.7514 19.0222 25.7023 19.5089 25.9725 19.8393C27.3971 21.5856 28.5314 23.1393 29.4374 24.5167L28.9333 24.8529C28.7084 25.0031 28.578 25.2597 28.5901 25.5297C28.6022 25.7998 28.7537 26.0436 28.9914 26.1733L31.1041 27.3289C32.5363 30.0924 32.6823 31.7133 32.1993 32.1959C31.6516 32.743 29.6401 32.5535 25.7778 30.2243C23.4374 28.8128 20.831 26.8643 18.1675 24.5565C19.2613 23.5674 20.3579 22.526 21.4438 21.4399C25.2074 17.6757 28.4492 13.7852 30.7191 10.3301L31.2511 10.6848C31.3801 10.7709 31.5294 10.8147 31.6796 10.8147C31.8049 10.8147 31.9301 10.7844 32.044 10.7234C32.2953 10.5891 32.4522 10.3272 32.4522 10.042V7.41772C34.1775 4.13352 34.465 1.87517 33.2919 0.702466C30.9923 -1.59521 24.9174 2.27282 21.4996 4.78333C21.1556 5.03529 21.0816 5.51899 21.3344 5.86309C21.5849 6.20568 22.07 6.27964 22.4141 6.02834C27.9662 1.95131 31.3809 0.974852 32.1995 1.79513C32.668 2.26376 32.5865 3.81332 31.0975 6.667L28.9916 7.81891C28.7539 7.94873 28.6022 8.19243 28.5902 8.46257C28.5781 8.73271 28.7086 8.9893 28.9335 9.13948L29.4333 9.47272C27.2225 12.842 24.0475 16.6498 20.3514 20.3473C19.2397 21.459 18.1182 22.5194 17.001 23.5254C15.8835 22.5191 14.7615 21.4584 13.6493 20.3464C9.95328 16.6494 6.77853 12.842 4.56771 9.47315L5.06822 9.13941C5.29301 8.98923 5.42356 8.73264 5.41146 8.4625C5.39936 8.19236 5.24774 7.94859 5.01012 7.81884L2.90239 6.6662C1.41369 3.81303 1.33211 2.26361 1.8006 1.79498C2.62298 0.973983 6.03708 1.95196 11.5939 6.03406C11.9371 6.28609 12.4224 6.21213 12.6737 5.86882C12.9263 5.52544 12.8524 5.04188 12.5084 4.78913C9.08744 2.27492 3.00468 -1.5976 0.708017 0.702321C-0.465416 1.87525 -0.177455 4.13439 1.54915 7.41997V10.0419C1.54915 10.3272 1.70614 10.589 1.9573 10.7233C2.07125 10.7844 2.19651 10.8146 2.32176 10.8146C2.47186 10.8146 2.62124 10.7708 2.75026 10.6848L3.28149 10.3304C5.55127 13.7852 8.79318 17.6752 12.5567 21.4389C13.6431 22.5255 14.74 23.567 15.8344 24.5565C13.1704 26.8646 10.5638 28.8138 8.22312 30.2254C4.35719 32.5563 2.34588 32.7412 1.80191 32.1972C1.31915 31.7144 1.4649 30.093 2.8979 27.3286L5.00991 26.1741C5.24752 26.0443 5.39922 25.7998 5.41124 25.5297C5.42334 25.2596 5.2928 25.003 5.06801 24.8529L4.56445 24.5172C5.46615 23.1464 6.59344 21.6013 8.00883 19.8651C8.27825 19.5346 8.22841 19.0479 7.898 18.7777C7.56744 18.5092 7.08156 18.5605 6.81077 18.8886C6.02462 19.8532 4.62132 21.645 3.29235 23.669L2.75026 23.3075C2.5141 23.1498 2.20781 23.1348 1.95723 23.269C1.70607 23.4033 1.54908 23.6652 1.54908 23.9504V26.6115C0.136441 29.3141 -0.630876 31.9501 0.709394 33.2899C1.18317 33.7638 1.83284 34 2.65594 34C4.18601 34 6.31504 33.1812 9.0213 31.5491C11.479 30.0661 14.215 28.0124 17.0008 25.5868C19.7863 28.0118 22.522 30.0651 24.9793 31.5478C27.6857 33.1807 29.8149 33.9993 31.3458 33.9986C32.1682 33.9986 32.8179 33.7625 33.2917 33.2886C34.632 31.949 33.8654 29.3139 32.452 26.6107V23.9504H32.4521Z" fill="#6E5A45"/>
</g>
<defs>
<clipPath id="clip0_301_1803">
<rect width="34" height="34" fill="white"/>
</clipPath>
</defs>
</svg>
