<svg width="60" height="60" viewBox="0 0 60 60" fill="none" xmlns="http://www.w3.org/2000/svg">
<path d="M29.9999 9.52209C18.7083 9.52209 9.52197 18.7085 9.52197 30C9.52197 41.2915 18.7083 50.478 29.9999 50.478C41.2915 50.478 50.4778 41.2915 50.4778 30C50.4778 18.7085 41.2914 9.52209 29.9999 9.52209ZM29.9999 48.1342C20.0006 48.1342 11.8657 39.9993 11.8657 30C11.8657 20.0008 20.0006 11.8658 29.9999 11.8658C39.9992 11.8658 48.1341 20.0008 48.1341 30C48.1341 39.9993 39.9992 48.1342 29.9999 48.1342Z" fill="white"/>
<path d="M56.7539 23.5745H55.7603C55.1258 21.0193 54.1187 18.59 52.7571 16.33L53.4615 15.6257C54.7271 14.3599 54.7271 12.3007 53.4615 11.035L48.9652 6.53859C47.6994 5.27309 45.6402 5.27309 44.3745 6.53859L43.6702 7.24301C41.4103 5.88152 38.9808 4.87441 36.4256 4.23984V3.24609C36.4256 1.45629 34.9695 0 33.1795 0H26.8207C25.0308 0 23.5746 1.45629 23.5746 3.24609V4.23973C21.0193 4.8743 18.5899 5.88141 16.3301 7.24289L15.6258 6.53848C14.36 5.27297 12.3008 5.27297 11.0351 6.53848L6.53859 11.035C5.27297 12.3007 5.27297 14.3599 6.53859 15.6257L7.24301 16.33C5.88141 18.59 4.8743 21.0195 4.23984 23.5745H3.24609C1.45629 23.5745 0 25.0307 0 26.8206V33.1794C0 34.9693 1.45629 36.4255 3.24609 36.4255H4.23973C4.87418 38.9807 5.88129 41.41 7.24289 43.67L6.53848 44.3743C5.27285 45.6401 5.27285 47.6993 6.53848 48.965L11.0348 53.4614C12.3006 54.7269 14.3598 54.7269 15.6255 53.4614L16.3298 52.757C18.5897 54.1185 21.0192 55.1256 23.5744 55.7602V56.7538C23.5744 58.5436 25.0305 59.9999 26.8205 59.9999H33.1793C34.9692 59.9999 36.4254 58.5436 36.4254 56.7538V55.7602C38.9807 55.1256 41.4101 54.1185 43.6699 52.757L44.3742 53.4614C45.64 54.7269 47.6992 54.7269 48.9649 53.4614L53.4613 48.965C54.7269 47.6993 54.7269 45.6401 53.4613 44.3743L52.7569 43.67C54.1185 41.41 55.1256 38.9805 55.76 36.4255H56.7537C58.5435 36.4255 59.9998 34.9693 59.9998 33.1794V26.8206C60 25.0307 58.5437 23.5745 56.7539 23.5745ZM57.6562 33.1794C57.6562 33.677 57.2515 34.0818 56.7539 34.0818H54.8269C54.2728 34.0818 53.7942 34.47 53.6802 35.0121C53.0647 37.9349 51.9231 40.6891 50.2868 43.1985C49.9842 43.6627 50.048 44.2754 50.4398 44.6672L51.8043 46.0316C52.1561 46.3834 52.1561 46.9559 51.8043 47.3077L47.3079 51.804C46.9561 52.1558 46.3836 52.1558 46.0318 51.804L44.6674 50.4396C44.2755 50.0477 43.6628 49.9843 43.1987 50.2866C40.6896 51.9227 37.9354 53.0644 35.0123 53.68C34.4701 53.7942 34.082 54.2726 34.082 54.8266V56.7539C34.082 57.2515 33.6772 57.6562 33.1796 57.6562H26.8208C26.3232 57.6562 25.9185 57.2515 25.9185 56.7539V54.8269C25.9185 54.2728 25.5302 53.7943 24.9881 53.6802C22.0651 53.0646 19.3109 51.923 16.8018 50.2868C16.6057 50.1591 16.3833 50.0966 16.162 50.0966C15.8595 50.0966 15.5593 50.2134 15.333 50.4398L13.9686 51.8043C13.6168 52.1561 13.0444 52.1561 12.6926 51.8043L8.19621 47.3079C7.84441 46.9561 7.84441 46.3836 8.19621 46.0318L9.56063 44.6674C9.9525 44.2755 10.0162 43.6629 9.71367 43.1987C8.07738 40.6894 6.93574 37.9351 6.32027 35.0123C6.20613 34.4701 5.72766 34.082 5.17359 34.082H3.24609C2.74852 34.082 2.34375 33.6772 2.34375 33.1796V26.8208C2.34375 26.3232 2.74852 25.9185 3.24609 25.9185H5.17313C5.7273 25.9185 6.20578 25.5302 6.3198 24.9881C6.93527 22.0654 8.07691 19.3111 9.7132 16.8018C10.0158 16.3376 9.95203 15.7249 9.56016 15.333L8.19574 13.9686C7.84395 13.6168 7.84395 13.0444 8.19574 12.6926L12.6921 8.19621C13.0439 7.84441 13.6164 7.84441 13.9682 8.19621L15.3326 9.56063C15.7246 9.95262 16.3375 10.0161 16.8013 9.71367C19.3104 8.0775 22.0646 6.93586 24.9877 6.32027C25.5299 6.20602 25.918 5.72766 25.918 5.17359V3.24609C25.918 2.74852 26.3228 2.34375 26.8204 2.34375H33.1792C33.6768 2.34375 34.0815 2.74852 34.0815 3.24609V5.17313C34.0815 5.7273 34.4698 6.20566 35.0119 6.3198C37.9349 6.93539 40.6891 8.07703 43.1982 9.7132C43.6624 10.0155 44.2751 9.95203 44.667 9.56016L46.0314 8.19574C46.3832 7.84395 46.9556 7.84395 47.3074 8.19574L51.8038 12.6921C52.1556 13.0439 52.1556 13.6164 51.8038 13.9682L50.4394 15.3326C50.0475 15.7245 49.9837 16.3371 50.2863 16.8013C51.9226 19.3106 53.0643 22.0649 53.6797 24.9877C53.7939 25.5299 54.2723 25.918 54.8264 25.918H56.7539C57.2515 25.918 57.6562 26.3228 57.6562 26.8204V33.1794Z" fill="white"/>
<path d="M37.6854 26.3875L33.1485 26.5554L33.8518 17.0657C33.891 16.5373 33.5708 16.0483 33.0706 15.8731C32.5706 15.6978 32.0151 15.88 31.7161 16.3173L21.3043 31.5355C21.0588 31.8944 21.0322 32.3595 21.2349 32.744C21.4377 33.1285 21.8367 33.3692 22.2715 33.3692H28.0054L26.7205 42.8639C26.6467 43.4092 26.9622 43.9324 27.479 44.1215C27.6111 44.1699 27.747 44.193 27.8816 44.193C28.2731 44.193 28.6502 43.996 28.8703 43.6505L38.7173 28.1881C38.9513 27.8206 38.9622 27.3538 38.7457 26.9759C38.5288 26.5981 38.1211 26.3707 37.6854 26.3875ZM29.7582 37.8926L30.5079 32.3544C30.5532 32.0194 30.4516 31.681 30.229 31.4262C30.0065 31.1716 29.6846 31.0254 29.3465 31.0254H24.4931L31.1928 21.2328L30.7144 27.6882C30.6897 28.0206 30.8079 28.3479 31.0392 28.588C31.2705 28.828 31.5928 28.9583 31.9263 28.9459L35.5411 28.8121L29.7582 37.8926Z" fill="white"/>
</svg>
