<svg width="50" height="50" viewBox="0 0 50 50" fill="none" xmlns="http://www.w3.org/2000/svg">
<path d="M25 7.93506C15.5903 7.93506 7.93506 15.5904 7.93506 25C7.93506 34.4096 15.5903 42.0649 25 42.0649C34.4097 42.0649 42.0649 34.4096 42.0649 25C42.0649 15.5904 34.4096 7.93506 25 7.93506ZM25 40.1118C16.6673 40.1118 9.88818 33.3327 9.88818 25C9.88818 16.6673 16.6673 9.88818 25 9.88818C33.3327 9.88818 40.1118 16.6673 40.1118 25C40.1118 33.3327 33.3327 40.1118 25 40.1118Z" fill="#3766CC"/>
<path d="M47.2949 19.6454H46.4669C45.9382 17.5161 45.0989 15.4917 43.9643 13.6083L44.5513 13.0214C45.606 11.9666 45.606 10.2506 44.5513 9.1958L40.8043 5.44883C39.7495 4.39424 38.0335 4.39424 36.9787 5.44883L36.3918 6.03584C34.5086 4.90127 32.484 4.06201 30.3547 3.5332V2.70508C30.3547 1.21357 29.1412 0 27.6496 0H22.3506C20.859 0 19.6455 1.21357 19.6455 2.70508V3.53311C17.5161 4.06191 15.4916 4.90117 13.6084 6.03574L13.0215 5.44873C11.9667 4.39414 10.2507 4.39414 9.1959 5.44873L5.44883 9.1958C4.39414 10.2506 4.39414 11.9666 5.44883 13.0214L6.03584 13.6083C4.90117 15.4917 4.06191 17.5162 3.5332 19.6454H2.70508C1.21357 19.6454 0 20.8589 0 22.3505V27.6495C0 29.1411 1.21357 30.3546 2.70508 30.3546H3.53311C4.06182 32.4839 4.90107 34.5083 6.03574 36.3917L5.44873 36.9786C4.39404 38.0334 4.39404 39.7494 5.44873 40.8042L9.1957 44.5512C10.2505 45.6058 11.9665 45.6058 13.0213 44.5512L13.6082 43.9642C15.4914 45.0987 17.516 45.938 19.6453 46.4668V47.2948C19.6453 48.7863 20.8588 49.9999 22.3504 49.9999H27.6494C29.141 49.9999 30.3545 48.7863 30.3545 47.2948V46.4668C32.4839 45.938 34.5084 45.0987 36.3916 43.9642L36.9785 44.5512C38.0333 45.6058 39.7493 45.6058 40.8041 44.5512L44.5511 40.8042C45.6058 39.7494 45.6058 38.0334 44.5511 36.9786L43.9641 36.3917C45.0987 34.5083 45.938 32.4838 46.4667 30.3546H47.2947C48.7862 30.3546 49.9998 29.1411 49.9998 27.6495V22.3505C50 20.8589 48.7864 19.6454 47.2949 19.6454ZM48.0469 27.6495C48.0469 28.0642 47.7096 28.4015 47.2949 28.4015H45.6891C45.2273 28.4015 44.8285 28.725 44.7335 29.1768C44.2206 31.6124 43.2692 33.9076 41.9057 35.9987C41.6535 36.3855 41.7066 36.8962 42.0332 37.2227L43.1702 38.3597C43.4634 38.6528 43.4634 39.1299 43.1702 39.423L39.4232 43.17C39.1301 43.4632 38.653 43.4632 38.3599 43.17L37.2229 42.033C36.8963 41.7064 36.3856 41.6536 35.9989 41.9055C33.908 43.2689 31.6128 44.2203 29.177 44.7333C28.7251 44.8285 28.4017 45.2271 28.4017 45.6889V47.2949C28.4017 47.7096 28.0644 48.0469 27.6497 48.0469H22.3507C21.936 48.0469 21.5987 47.7096 21.5987 47.2949V45.6891C21.5987 45.2273 21.2752 44.8286 20.8234 44.7335C18.3876 44.2205 16.0924 43.2691 14.0015 41.9057C13.8381 41.7992 13.6527 41.7472 13.4684 41.7472C13.2162 41.7472 12.9661 41.8445 12.7775 42.0332L11.6405 43.1702C11.3474 43.4634 10.8703 43.4634 10.5771 43.1702L6.83018 39.4232C6.53701 39.1301 6.53701 38.653 6.83018 38.3599L7.96719 37.2229C8.29375 36.8963 8.34688 36.3857 8.09473 35.9989C6.73115 33.9078 5.77979 31.6126 5.26689 29.177C5.17178 28.7251 4.77305 28.4017 4.31133 28.4017H2.70508C2.29043 28.4017 1.95312 28.0644 1.95312 27.6497V22.3507C1.95312 21.936 2.29043 21.5987 2.70508 21.5987H4.31094C4.77275 21.5987 5.17148 21.2752 5.2665 20.8234C5.77939 18.3878 6.73076 16.0926 8.09434 14.0015C8.34648 13.6146 8.29336 13.1041 7.9668 12.7775L6.82978 11.6405C6.53662 11.3474 6.53662 10.8703 6.82978 10.5771L10.5768 6.83018C10.8699 6.53701 11.347 6.53701 11.6401 6.83018L12.7771 7.96719C13.1038 8.29385 13.6146 8.34678 14.0011 8.09473C16.092 6.73125 18.3872 5.77988 20.823 5.26689C21.2749 5.17168 21.5983 4.77305 21.5983 4.31133V2.70508C21.5983 2.29043 21.9356 1.95312 22.3503 1.95312H27.6493C28.064 1.95312 28.4013 2.29043 28.4013 2.70508V4.31094C28.4013 4.77275 28.7248 5.17139 29.1766 5.2665C31.6124 5.77949 33.9076 6.73086 35.9985 8.09434C36.3854 8.34629 36.8959 8.29336 37.2225 7.9668L38.3595 6.82978C38.6526 6.53662 39.1297 6.53662 39.4229 6.82978L43.1698 10.5768C43.463 10.8699 43.463 11.347 43.1698 11.6401L42.0328 12.7771C41.7062 13.1037 41.6531 13.6143 41.9053 14.0011C43.2688 16.0922 44.2202 18.3874 44.7331 20.823C44.8282 21.2749 45.227 21.5983 45.6887 21.5983H47.2949C47.7096 21.5983 48.0469 21.9356 48.0469 22.3503V27.6495Z" fill="#3766CC"/>
<path d="M31.4045 21.9896L27.6237 22.1295L28.2098 14.2214C28.2425 13.7811 27.9757 13.3735 27.5589 13.2275C27.1422 13.0814 26.6793 13.2333 26.4301 13.5978L17.7536 26.2796C17.549 26.5786 17.5268 26.9662 17.6958 27.2866C17.8647 27.607 18.1972 27.8076 18.5596 27.8076H23.3379L22.2671 35.7199C22.2055 36.1743 22.4685 36.6104 22.8992 36.7679C23.0093 36.8082 23.1225 36.8274 23.2346 36.8274C23.5609 36.8274 23.8752 36.6633 24.0586 36.3754L32.2644 23.49C32.4595 23.1838 32.4685 22.7948 32.2881 22.4799C32.1073 22.165 31.7676 21.9756 31.4045 21.9896ZM24.7985 31.5772L25.4232 26.962C25.461 26.6828 25.3763 26.4008 25.1908 26.1885C25.0054 25.9763 24.7372 25.8545 24.4554 25.8545H20.4109L25.994 17.6939L25.5953 23.0734C25.5748 23.3505 25.6732 23.6232 25.866 23.8233C26.0588 24.0233 26.3273 24.1319 26.6053 24.1216L29.6176 24.0101L24.7985 31.5772Z" fill="#3766CC"/>
</svg>
