<svg width="60" height="60" viewBox="0 0 60 60" fill="none" xmlns="http://www.w3.org/2000/svg">
<g clip-path="url(#clip0_279_3741)">
<path d="M59.9951 20.0002C59.9953 19.6693 59.8353 19.3518 59.5479 19.1638L30.5479 0.163801C30.2159 -0.0539492 29.7843 -0.0539492 29.4521 0.163801L0.452125 19.1638C0.16475 19.3518 0.00475 19.6693 0.004875 20.0002H0V59.0002C0 59.5524 0.44725 60.0002 1 60.0002H9C9.55275 60.0002 10 59.5524 10 59.0002V27.0002H50V59.0002C50 59.5524 50.4473 60.0002 51 60.0002H59C59.5527 60.0002 60 59.5524 60 59.0002V20.0002H59.9951ZM30 2.19555L55.6494 19.0003H4.35063L30 2.19555ZM58 58.0002H52V26.0002C52 25.4479 51.5527 25.0002 51 25.0002H9C8.44725 25.0002 8 25.4479 8 26.0002V58.0002H2V21.0002H58V58.0002Z" fill="white"/>
<path d="M56 27.9999H54V33.9999H56V27.9999Z" fill="white"/>
<path d="M56 35.5126H54V37.5151H56V35.5126Z" fill="white"/>
<path d="M56 39H54V41.0025H56V39Z" fill="white"/>
<path d="M6 27.9999H4V33.9999H6V27.9999Z" fill="white"/>
<path d="M6 35.5126H4V37.5151H6V35.5126Z" fill="white"/>
<path d="M6 39H4V41.0025H6V39Z" fill="white"/>
<path d="M46 46.9999V44.9999H43.9305C43.4359 41.0599 40.0718 37.9999 36 37.9999H24C19.9282 37.9999 16.5641 41.0599 16.0695 44.9999H14V46.9999H16V48.1841C14.8385 48.5983 14 49.6979 14 50.9999V54.9999V56.9999C14 58.6541 15.3457 59.9999 17 59.9999H19C20.6543 59.9999 22 58.6541 22 56.9999V55.9999H38V56.9999C38 58.6541 39.3458 59.9999 41 59.9999H43C44.6542 59.9999 46 58.6541 46 56.9999V54.9999V50.9999C46 49.6979 45.1615 48.5983 44 48.1841V46.9999H46ZM18 45.9999C18 42.6913 20.6914 39.9999 24 39.9999H36C39.3086 39.9999 42 42.6913 42 45.9999V47.9999H18V45.9999ZM20 56.9999C20 57.5511 19.5518 57.9999 19 57.9999H17C16.4483 57.9999 16 57.5511 16 56.9999V55.9999H20V56.9999ZM44 56.9999C44 57.5511 43.5518 57.9999 43 57.9999H41C40.4482 57.9999 40 57.5511 40 56.9999V55.9999H44V56.9999ZM44 52.9999V53.9999H39H21H16V52.9999H19V50.9999H16C16 50.4486 16.4483 49.9999 17 49.9999H43C43.5518 49.9999 44 50.4486 44 50.9999H41V52.9999H44Z" fill="white"/>
<path d="M48 28.9999H12C11.4473 28.9999 11 29.4476 11 29.9999V33.9999C11 34.5521 11.4473 34.9999 12 34.9999H48C48.5527 34.9999 49 34.5521 49 33.9999V29.9999C49 29.4476 48.5527 28.9999 48 28.9999ZM47 32.9999H13V30.9999H47V32.9999Z" fill="white"/>
</g>
<defs>
<clipPath id="clip0_279_3741">
<rect width="60" height="60" fill="white"/>
</clipPath>
</defs>
</svg>
