<svg width="50" height="50" viewBox="0 0 50 50" fill="none" xmlns="http://www.w3.org/2000/svg">
<g clip-path="url(#clip0_243_1367)">
<path d="M49.9959 16.6669C49.996 16.3912 49.8627 16.1266 49.6232 15.9699L25.4566 0.136582C25.1799 -0.0448763 24.8202 -0.0448763 24.5434 0.136582L0.376771 15.9699C0.137292 16.1266 0.00395833 16.3912 0.0040625 16.6669H0V49.1669C0 49.6271 0.372708 50.0002 0.833333 50.0002H7.5C7.96062 50.0002 8.33333 49.6271 8.33333 49.1669V22.5002H41.6667V49.1669C41.6667 49.6271 42.0394 50.0002 42.5 50.0002H49.1667C49.6273 50.0002 50 49.6271 50 49.1669V16.6669H49.9959ZM25 1.82971L46.3745 15.8337H3.62552L25 1.82971ZM48.3333 48.3336H43.3333V21.6669C43.3333 21.2067 42.9606 20.8336 42.5 20.8336H7.5C7.03937 20.8336 6.66667 21.2067 6.66667 21.6669V48.3336H1.66667V17.5002H48.3333V48.3336Z" fill="#3766CC"/>
<path d="M46.6667 23.3333H45V28.3332H46.6667V23.3333Z" fill="#3766CC"/>
<path d="M46.6667 29.5938H45V31.2625H46.6667V29.5938Z" fill="#3766CC"/>
<path d="M46.6667 32.5H45V34.1688H46.6667V32.5Z" fill="#3766CC"/>
<path d="M4.99992 23.3333H3.33325V28.3332H4.99992V23.3333Z" fill="#3766CC"/>
<path d="M4.99992 29.5938H3.33325V31.2625H4.99992V29.5938Z" fill="#3766CC"/>
<path d="M4.99992 32.5H3.33325V34.1688H4.99992V32.5Z" fill="#3766CC"/>
<path d="M38.3334 39.1665V37.4998H36.6088C36.1966 34.2165 33.3932 31.6665 30.0001 31.6665H20.0001C16.607 31.6665 13.8035 34.2165 13.3913 37.4998H11.6667V39.1665H13.3334V40.1534C12.3655 40.4985 11.6667 41.4148 11.6667 42.4998V45.8332V47.4998C11.6667 48.8784 12.7882 49.9998 14.1667 49.9998H15.8334C17.212 49.9998 18.3334 48.8784 18.3334 47.4998V46.6665H31.6667V47.4998C31.6667 48.8784 32.7882 49.9998 34.1667 49.9998H35.8334C37.212 49.9998 38.3334 48.8784 38.3334 47.4998V45.8332V42.4998C38.3334 41.4148 37.6347 40.4985 36.6667 40.1534V39.1665H38.3334ZM15.0001 38.3332C15.0001 35.576 17.2429 33.3332 20.0001 33.3332H30.0001C32.7573 33.3332 35.0001 35.576 35.0001 38.3332V39.9998H15.0001V38.3332ZM16.6667 47.4998C16.6667 47.9592 16.2932 48.3332 15.8334 48.3332H14.1667C13.707 48.3332 13.3334 47.9592 13.3334 47.4998V46.6665H16.6667V47.4998ZM36.6667 47.4998C36.6667 47.9592 36.2932 48.3332 35.8334 48.3332H34.1667C33.707 48.3332 33.3334 47.9592 33.3334 47.4998V46.6665H36.6667V47.4998ZM36.6667 44.1665V44.9998H32.5001H17.5001H13.3334V44.1665H15.8334V42.4998H13.3334C13.3334 42.0405 13.707 41.6665 14.1667 41.6665H35.8334C36.2932 41.6665 36.6667 42.0405 36.6667 42.4998H34.1667V44.1665H36.6667Z" fill="#3766CC"/>
<path d="M40.0001 24.1665H10.0001C9.53946 24.1665 9.16675 24.5396 9.16675 24.9998V28.3332C9.16675 28.7934 9.53946 29.1665 10.0001 29.1665H40.0001C40.4607 29.1665 40.8334 28.7934 40.8334 28.3332V24.9998C40.8334 24.5396 40.4607 24.1665 40.0001 24.1665ZM39.1667 27.4998H10.8334V25.8332H39.1667V27.4998Z" fill="#3766CC"/>
</g>
<defs>
<clipPath id="clip0_243_1367">
<rect width="50" height="50" fill="white"/>
</clipPath>
</defs>
</svg>
