<svg width="30" height="30" viewBox="0 0 30 30" fill="none" xmlns="http://www.w3.org/2000/svg">
<g clip-path="url(#clip0_301_1862)">
<path d="M18.457 5.33203H11.4258C10.9404 5.33203 10.5469 5.72555 10.5469 6.21094C10.5469 6.69633 10.9404 7.08984 11.4258 7.08984H18.457C18.9424 7.08984 19.3359 6.69633 19.3359 6.21094C19.3359 5.72555 18.9424 5.33203 18.457 5.33203Z" fill="#6E5A45"/>
<path d="M18.457 8.84766H11.4258C10.9404 8.84766 10.5469 9.24117 10.5469 9.72656C10.5469 10.212 10.9404 10.6055 11.4258 10.6055H18.457C18.9424 10.6055 19.3359 10.212 19.3359 9.72656C19.3359 9.24117 18.9424 8.84766 18.457 8.84766Z" fill="#6E5A45"/>
<path d="M18.457 12.3633H4.39453C3.90914 12.3633 3.51562 12.7568 3.51562 13.2422C3.51562 13.7276 3.90914 14.1211 4.39453 14.1211H18.457C18.9424 14.1211 19.3359 13.7276 19.3359 13.2422C19.3359 12.7568 18.9424 12.3633 18.457 12.3633Z" fill="#6E5A45"/>
<path d="M15.2708 15.8789H4.39453C3.90914 15.8789 3.51562 16.2724 3.51562 16.7578C3.51562 17.2432 3.90914 17.6367 4.39453 17.6367H15.2708C15.7562 17.6367 16.1497 17.2432 16.1497 16.7578C16.1497 16.2724 15.7562 15.8789 15.2708 15.8789Z" fill="#6E5A45"/>
<path d="M22.9102 15.8789V2.63672C22.9102 1.17938 21.6741 0 20.2148 0H7.91004C7.68721 0 7.45799 0.088125 7.28613 0.260039L0.254883 7.34988C0.0933398 7.51271 0 7.73918 0 7.96875V27.3633C0 28.8172 1.18283 30 2.63672 30C4.49098 30 5.10668 30 5.10404 30C7.79953 30 13.1036 30 22.9102 30C26.791 30 30 26.8046 30 22.9102C30 19.0331 26.8195 15.8789 22.9102 15.8789ZM7.03125 3.0133V7.08984H2.9884L7.03125 3.0133ZM2.63672 28.2422C2.15209 28.2422 1.75781 27.8479 1.75781 27.3633V8.84766H7.91016C8.39555 8.84766 8.78906 8.45414 8.78906 7.96875V1.75781H20.2148C20.7142 1.75781 21.1523 2.1685 21.1523 2.63672V16.0978C19.2868 16.5714 17.7154 17.7809 16.7721 19.3945H4.39453C3.90914 19.3945 3.51562 19.788 3.51562 20.2734C3.51562 20.7588 3.90914 21.1523 4.39453 21.1523H16.0446C15.8982 21.7144 15.8203 22.3034 15.8203 22.9102H4.39453C3.90914 22.9102 3.51562 23.3037 3.51562 23.7891C3.51562 24.2745 3.90914 24.668 4.39453 24.668H16.0433C16.3985 26.0424 17.1666 27.2812 18.2629 28.2422H2.63672ZM22.9102 28.2422C20.0199 28.2422 17.5781 25.8004 17.5781 22.9102C17.5781 20.0024 19.97 17.6367 22.9102 17.6367C25.8503 17.6367 28.2422 20.0024 28.2422 22.9102C28.2422 25.8004 25.8004 28.2422 22.9102 28.2422Z" fill="#6E5A45"/>
<path d="M26.2323 21.4149C25.892 21.0689 25.3355 21.0643 24.9893 21.4046L22.0265 24.319L20.8263 23.1575C20.4775 22.8199 19.9211 22.829 19.5835 23.1779C19.2459 23.5267 19.2551 24.0831 19.6039 24.4206L21.4203 26.1784C21.7629 26.51 22.3076 26.508 22.6478 26.1735L26.222 22.6578C26.5681 22.3175 26.5727 21.761 26.2323 21.4149Z" fill="#6E5A45"/>
</g>
<defs>
<clipPath id="clip0_301_1862">
<rect width="30" height="30" fill="white"/>
</clipPath>
</defs>
</svg>
