<svg width="27" height="27" viewBox="0 0 27 27" fill="none" xmlns="http://www.w3.org/2000/svg">
<path d="M26.9999 13.4983C26.9994 13.2245 26.8571 12.9704 26.624 12.8266L23.88 11.1351L26.6269 9.42544C26.8586 9.28127 26.9995 9.02788 26.9999 8.75508C27.0004 8.48224 26.8601 8.22843 26.6289 8.08357L13.92 0.120709C13.6631 -0.0402362 13.3368 -0.0402362 13.08 0.120709L0.371038 8.08357C0.139852 8.22843 -0.000368412 8.48224 7.27037e-07 8.75508C0.0004226 9.02793 0.141381 9.28132 0.373042 9.42544L3.10109 11.1234L0.371829 12.8293C0.140326 12.974 -0.00021021 13.2278 5.34612e-05 13.5008C0.000317132 13.7738 0.141328 14.0273 0.373095 14.1716L3.10114 15.8696L0.371829 17.5753C0.140695 17.7198 0.000211664 17.9731 5.34612e-05 18.2457C-0.000104741 18.5183 0.140115 18.7717 0.371091 18.9164L13.08 26.8793C13.2085 26.9598 13.3542 27 13.5 27C13.6458 27 13.7916 26.9598 13.92 26.8793L26.6289 18.9164C26.8606 18.7713 27.0009 18.5167 26.9999 18.2432C26.9989 17.9698 26.8568 17.7163 26.624 17.5728L23.88 15.8813L26.6269 14.1716C26.8594 14.0269 27.0005 13.7722 26.9999 13.4983ZM2.28444 8.75176L13.5 1.72457L24.7156 8.75176C24.6078 8.81884 13.8214 15.5323 13.5 15.7324L2.28444 8.75176ZM24.7104 18.2516L13.5 25.2755L2.28223 18.247L4.59668 16.8004L13.082 22.0817C13.21 22.1614 13.355 22.2012 13.5 22.2012C13.645 22.2012 13.79 22.1614 13.918 22.0817L22.3799 16.815L24.7104 18.2516ZM13.5 20.4785L2.28576 13.4987L4.59668 12.0543L13.082 17.3357C13.21 17.4153 13.355 17.4551 13.5 17.4551C13.645 17.4551 13.79 17.4153 13.918 17.3357L22.3799 12.0689L24.7068 13.5033C24.6425 13.5433 13.7969 20.2936 13.5 20.4785Z" fill="#00004A"/>
</svg>
