<svg width="22" height="22" viewBox="0 0 22 22" fill="none" xmlns="http://www.w3.org/2000/svg">
<path d="M22 10.9986C21.9995 10.7755 21.8836 10.5685 21.6936 10.4513L19.4578 9.07307L21.696 7.67999C21.8848 7.56251 21.9996 7.35605 22 7.13377C22.0003 6.91145 21.886 6.70465 21.6976 6.58661L11.3422 0.0983551C11.1329 -0.032785 10.8671 -0.032785 10.6578 0.0983551L0.302328 6.58661C0.113953 6.70465 -0.000300188 6.91145 5.924e-07 7.13377C0.000344341 7.35609 0.115199 7.56256 0.30396 7.67999L2.52681 9.06349L0.302972 10.4535C0.11434 10.5714 -0.000171282 10.7782 4.3561e-05 11.0006C0.000258404 11.2231 0.115156 11.4297 0.304003 11.5472L2.52685 12.9307L0.302972 14.3207C0.114641 14.4384 0.000172467 14.6448 4.3561e-05 14.8669C-8.53448e-05 15.089 0.114168 15.2955 0.30237 15.4134L10.6578 21.9016C10.7625 21.9672 10.8812 22 11 22C11.1188 22 11.2376 21.9672 11.3422 21.9016L21.6976 15.4134C21.8864 15.2951 22.0008 15.0876 22 14.8649C21.9991 14.6421 21.8833 14.4355 21.6936 14.3186L19.4578 12.9403L21.696 11.5472C21.8854 11.4293 22.0004 11.2218 22 10.9986ZM1.8614 7.13107L11 1.4052L20.1386 7.13107C20.0508 7.18572 11.2619 12.656 11 12.819L1.8614 7.13107ZM20.1344 14.8717L11 20.5949L1.85959 14.8679L3.74544 13.6892L10.6594 17.9925C10.7637 18.0574 10.8818 18.0899 11 18.0899C11.1182 18.0899 11.2363 18.0574 11.3406 17.9925L18.2355 13.7011L20.1344 14.8717ZM11 16.6862L1.86247 10.9989L3.74544 9.82206L10.6594 14.1254C10.7637 14.1902 10.8818 14.2227 11 14.2227C11.1182 14.2227 11.2363 14.1902 11.3406 14.1254L18.2355 9.83392L20.1315 11.0027C20.0791 11.0353 11.2419 16.5356 11 16.6862Z" fill="white"/>
</svg>
